<svg version="1.1" xmlns="http://www.w3.org/2000/svg" xmlns:xlink="http://www.w3.org/1999/xlink" width="49" height="57"><defs/><g><path fill="rgb(97,97,97)" stroke="none" paint-order="stroke fill markers" fill-rule="evenodd" d=" M 15.941802978515625 52.900332391262054 C 15.941802978515625 54.55729377269745 17.284862518310547 55.899983167648315 18.941585540771484 55.899983167648315 C 20.598594665527344 55.899983167648315 21.941749572753906 54.55729377269745 21.941749572753906 52.900332391262054 C 21.941749572753906 52.900332391262054 21.944229125976562 47.890914261341095 21.944229125976562 47.890914261341095 C 22.631542205810547 47.92464816570282 23.879043579101562 47.941715121269226 23.879043579101562 47.941715121269226 C 23.879043579101562 47.941715121269226 25.70370864868164 47.96091544628143 27.934925079345703 47.79077923297882 C 27.934925079345703 47.79077923297882 27.941505432128906 52.900332391262054 27.941505432128906 52.900332391262054 C 27.941505432128906 54.55729377269745 29.28475570678711 55.899983167648315 30.941574096679688 55.899983167648315 C 32.598392486572266 55.899983167648315 33.94154739379883 54.55729377269745 33.94154739379883 52.900332391262054 C 33.94154739379883 52.900332391262054 33.87650680541992 47.11956787109375 33.87650680541992 47.11956787109375 C 37.061397552490234 46.29088717699051 39.8790283203125 44.85659623146057 39.8790283203125 42.379220962524414 C 39.8790283203125 42.379220962524414 39.8790283203125 23.94197553396225 39.8790283203125 23.94197553396225 C 39.8790283203125 23.94197553396225 39.81665802001953 21.94154167175293 37.879173278808594 21.94154167175293 C 37.879173278808594 21.94154167175293 11.941425323486328 21.879540622234344 11.941425323486328 21.879540622234344 C 11.941425323486328 21.879540622234344 9.941761016845703 22.004076063632965 9.941761016845703 23.87970781326294 C 9.941761016845703 23.87970781326294 9.941761016845703 42.316953241825104 9.941761016845703 42.316953241825104 C 9.941761016845703 42.316953241825104 10.213558197021484 45.5788751244545 15.912334442138672 47.26717036962509 C 15.912334442138672 47.26717036962509 15.941802978515625 52.900332391262054 15.941802978515625 52.900332391262054 Z M 24.941532135009766 3.879502594470978 C 27.4278564453125 3.879502594470978 29.363624572753906 4.354710638523102 31.409732818603516 5.518463671207428 C 31.76573944091797 5.720867097377777 33.81928634643555 1.8696019053459167 35.797969818115234 2.03560471534729 C 36.17295455932617 5.835935711860657 33.58353805541992 6.897153675556183 33.934967041015625 7.1868919134140015 C 37.56293487548828 10.178275883197784 39.8790283203125 15.027557969093323 39.8790283203125 19.982041835784912 C 39.8790283203125 19.982041835784912 14.004318237304688 19.982041835784912 9.941761016845703 19.982041835784912 C 9.941761016845703 15.241294920444489 12.082950592041016 10.581749379634857 15.462486267089844 7.582098603248596 C 15.863792419433594 7.225959241390228 13.132659912109375 3.9377702474594116 14.092151641845703 2.050671637058258 C 15.791313171386719 1.8576017022132874 17.639057159423828 5.955004394054413 18.124000549316406 5.682599782943726 C 20.163814544677734 4.538980424404144 22.478668212890625 3.879502594470978 24.941532135009766 3.879502594470978 Z M 17.941753387451172 11.94203907251358 C 19.04639434814453 11.94203907251358 19.94189453125 12.837520897388458 19.94189453125 13.94193959236145 C 19.94189453125 15.046891629695892 19.04639434814453 15.942240118980408 17.941753387451172 15.942240118980408 C 16.837303161621094 15.942240118980408 15.941802978515625 15.046891629695892 15.941802978515625 13.94193959236145 C 15.941802978515625 12.837520897388458 16.837303161621094 11.94203907251358 17.941753387451172 11.94203907251358 Z M 31.941883087158203 11.94203907251358 C 33.04623794555664 11.94203907251358 33.94173812866211 12.837520897388458 33.94173812866211 13.94193959236145 C 33.94173812866211 15.046891629695892 33.04623794555664 15.942240118980408 31.941883087158203 15.942240118980408 C 30.837146759033203 15.942240118980408 29.941646575927734 15.046891629695892 29.941646575927734 13.94193959236145 C 29.941646575927734 12.837520897388458 30.837146759033203 11.94203907251358 31.941883087158203 11.94203907251358 Z M 4.941837310791016 21.94207501411438 C 6.598751068115234 21.94207501411438 7.941810607910156 23.28543108701706 7.941810607910156 24.941859126091003 C 7.941810607910156 24.941859126091003 7.941810607910156 38.941829442977905 7.941810607910156 38.941829442977905 C 7.941810607910156 40.59932416677475 6.598751068115234 41.94201356172562 4.941837310791016 41.94201356172562 C 3.2848281860351562 41.94201356172562 1.941864013671875 40.59932416677475 1.941864013671875 38.941829442977905 C 1.941864013671875 38.941829442977905 1.941864013671875 24.941859126091003 1.941864013671875 24.941859126091003 C 1.941864013671875 23.28543108701706 3.2848281860351562 21.94207501411438 4.941837310791016 21.94207501411438 Z M 44.94160842895508 21.94207501411438 C 46.59871292114258 21.94207501411438 47.94167709350586 23.28543108701706 47.94167709350586 24.941859126091003 C 47.94167709350586 24.941859126091003 47.94167709350586 38.941829442977905 47.94167709350586 38.941829442977905 C 47.94167709350586 40.59932416677475 46.59871292114258 41.94201356172562 44.94160842895508 41.94201356172562 C 43.28488540649414 41.94201356172562 41.94173049926758 40.59932416677475 41.94173049926758 38.941829442977905 C 41.94173049926758 38.941829442977905 41.94173049926758 24.941859126091003 41.94173049926758 24.941859126091003 C 41.94173049926758 23.28543108701706 43.28488540649414 21.94207501411438 44.94160842895508 21.94207501411438 Z"/></g></svg>